<?xml version="1.0" standalone="no"?>
<!DOCTYPE svg PUBLIC "-//W3C//DTD SVG 20010904//EN"
 "http://www.w3.org/TR/2001/REC-SVG-20010904/DTD/svg10.dtd">
<svg version="1.0" xmlns="http://www.w3.org/2000/svg"
 width="300.000000pt" height="300.000000pt" viewBox="0 0 300.000000 300.000000"
 preserveAspectRatio="xMidYMid meet">
<metadata>
Created by potrace 1.10, written by Peter Selinger 2001-2011
</metadata>
<g transform="translate(0.000000,300.000000) scale(0.100000,-0.100000)"
fill="#000000" stroke="none">
<path d="M1295 2794 c-16 -2 -66 -9 -110 -15 -468 -62 -804 -311 -930 -688
-20 -59 -28 -70 -74 -101 -113 -77 -161 -219 -161 -478 0 -268 63 -450 174
-504 38 -18 45 -27 70 -94 64 -166 212 -351 356 -443 242 -157 562 -230 945
-218 371 12 642 95 852 262 128 101 234 244 294 399 25 64 32 73 76 97 112 60
173 237 173 502 -1 259 -59 417 -174 477 -46 24 -51 30 -72 93 -86 254 -262
452 -509 572 -192 93 -400 136 -685 140 -107 2 -208 1 -225 -1z m15 -45 c-35
-8 -83 -16 -153 -24 -21 -3 -44 -8 -50 -12 -7 -4 -16 -8 -22 -9 -51 -10 -76
-17 -157 -45 -51 -18 -116 -45 -145 -60 -65 -35 -81 -44 -115 -59 -15 -7 -25
-17 -22 -22 3 -5 -7 -6 -23 -3 -21 5 -24 4 -13 -4 13 -9 12 -12 -5 -25 -11 -8
-23 -12 -26 -10 -4 2 -10 -3 -13 -12 -3 -8 -10 -12 -16 -9 -6 3 -7 -1 -4 -9 4
-11 0 -16 -10 -16 -9 0 -16 -5 -16 -12 0 -9 -3 -9 -12 0 -17 17 52 85 76 76
12 -4 15 -2 11 9 -7 16 70 67 100 67 9 0 13 5 10 10 -3 6 -1 11 4 11 21 3 26
5 51 21 33 22 162 72 225 87 28 7 66 17 85 22 52 14 200 37 240 37 l35 0 -35
-9z m498 -4 c292 -52 489 -143 647 -300 93 -93 103 -106 164 -215 18 -32 20
-41 8 -31 -9 7 -17 20 -17 27 0 8 -4 14 -9 14 -4 0 -25 26 -46 58 -56 84 -159
185 -250 246 -74 49 -109 65 -247 115 -29 10 -62 22 -73 26 -11 5 -27 9 -35
11 -8 1 -31 7 -50 13 -63 18 -124 30 -179 36 -30 3 -57 8 -60 10 -9 10 66 4
147 -10z m-167 -15 c155 -15 223 -28 337 -66 301 -100 500 -260 621 -500 85
-171 115 -305 126 -574 18 -434 -62 -707 -269 -927 -174 -184 -401 -288 -707
-324 -154 -18 -498 -7 -630 20 -261 53 -483 165 -609 308 -104 118 -185 275
-223 432 -11 47 -25 89 -30 92 -5 4 -15 31 -22 60 -7 30 -14 46 -14 36 -1 -10
6 -47 15 -83 14 -56 15 -67 3 -75 -20 -12 -27 -2 -50 86 -17 63 -22 121 -26
268 -3 103 -8 186 -10 183 -10 -10 -13 -280 -3 -342 6 -38 14 -87 17 -109 7
-50 27 -91 52 -105 14 -7 20 -6 25 5 7 18 26 20 26 2 0 -22 51 -170 80 -232
32 -68 143 -230 199 -288 37 -39 174 -137 191 -137 6 0 10 -4 10 -10 0 -5 4
-10 9 -10 20 0 105 -44 93 -48 -20 -6 -188 82 -264 139 -134 100 -252 263
-302 417 -15 45 -26 58 -75 91 -32 22 -65 50 -73 63 -31 47 -68 174 -75 258
-11 118 2 363 21 424 28 87 91 176 114 162 6 -3 17 6 27 20 12 18 20 23 27 16
16 -16 -10 -70 -40 -85 -36 -16 -52 -52 -51 -112 l1 -50 17 67 c10 37 20 71
24 74 11 11 39 -6 34 -20 -3 -8 -8 -32 -12 -53 -4 -28 -3 -33 4 -18 8 17 10
18 10 3 1 -10 5 -18 10 -18 4 0 11 27 15 60 18 154 93 344 186 470 173 233
417 358 820 419 146 22 229 25 371 11z m-1139 -322 c2 -6 -5 -21 -16 -32 -82
-86 -175 -247 -192 -335 -4 -17 -11 -34 -15 -37 -11 -6 -11 -10 2 62 13 73 85
212 151 293 51 62 63 70 70 49z m2286 -463 c23 -20 42 -45 42 -55 0 -24 20
-37 21 -13 0 10 12 -6 25 -36 38 -83 57 -231 50 -389 -6 -144 -15 -192 -53
-295 -26 -70 -40 -87 -23 -27 5 19 8 36 5 38 -2 2 -7 -9 -11 -24 -10 -39 -49
-89 -88 -113 -24 -15 -40 -39 -64 -98 -98 -241 -277 -430 -507 -534 -64 -29
-277 -87 -339 -93 -18 -2 -37 -6 -43 -9 -5 -3 -52 -9 -104 -12 -52 -3 -107 -8
-124 -10 -22 -4 -26 -2 -15 5 8 5 31 10 50 10 61 0 110 12 103 24 -4 6 0 5 9
-2 13 -10 26 -11 54 -3 20 6 41 8 46 5 4 -3 8 -1 8 5 0 5 8 8 18 7 9 -2 31 1
47 5 17 5 46 11 65 14 19 3 36 10 38 15 2 4 16 6 32 4 16 -3 31 0 36 7 5 9 2
10 -10 6 -11 -4 -15 -3 -10 4 3 6 22 9 40 7 26 -3 33 -1 30 9 -4 8 3 13 17 13
22 0 57 20 86 48 7 7 20 11 28 8 8 -3 12 -2 9 3 -3 5 1 12 10 15 10 4 13 2 8
-7 -3 -6 5 1 18 17 14 16 30 26 36 22 6 -3 14 -1 18 5 4 8 3 9 -4 5 -7 -4 -12
-5 -12 -2 0 3 25 23 55 44 30 22 51 43 47 47 -4 5 -2 5 4 2 20 -11 131 118
150 176 4 9 10 17 14 17 4 0 28 43 54 95 32 65 46 107 46 135 0 23 4 39 9 35
5 -3 11 7 13 22 2 20 10 29 28 33 14 3 31 18 39 35 8 17 17 32 21 35 4 3 8 27
8 53 1 26 4 53 8 59 23 37 -10 470 -41 545 -20 48 -25 41 -9 -13 50 -167 39
-643 -17 -699 -21 -21 -27 11 -13 65 37 139 36 448 -2 609 -8 35 -12 66 -9 69
3 3 1 10 -4 16 -12 15 -30 83 -24 90 8 8 32 -7 81 -49z m-31 -467 c-2 -18 -4
-6 -4 27 0 33 2 48 4 33 2 -15 2 -42 0 -60z m-1602 -1158 l30 -8 -35 0 c-19 0
-44 3 -55 8 -18 8 -18 9 5 8 14 0 39 -4 55 -8z"/>
<path d="M1266 2664 c-332 -38 -581 -148 -733 -324 -120 -138 -208 -334 -238
-529 -5 -31 -4 -42 4 -37 6 4 11 0 11 -9 0 -9 4 -13 10 -10 5 3 10 20 10 37 0
18 4 45 10 62 5 17 21 69 36 116 63 199 174 357 324 461 58 41 171 101 225
120 11 3 38 14 60 23 23 10 47 18 55 20 8 2 26 6 40 9 14 4 39 8 55 11 17 2
71 11 120 20 84 14 271 30 233 20 -31 -9 -28 -31 3 -26 16 2 26 8 23 13 -5 8
12 13 43 12 52 -2 179 -16 197 -22 11 -5 46 -12 76 -16 80 -10 81 -10 171 -40
267 -86 455 -248 560 -483 16 -34 47 -120 71 -190 l42 -127 0 -260 c1 -212 -2
-274 -16 -336 -19 -81 -25 -102 -38 -134 -5 -11 -11 -29 -13 -40 -2 -11 -9
-19 -16 -17 -7 1 -12 -6 -11 -15 3 -30 0 -47 -7 -40 -7 8 -43 -67 -43 -90 0
-8 -4 -11 -10 -8 -5 3 -10 -3 -10 -14 0 -14 -5 -19 -15 -15 -10 4 -15 0 -15
-10 0 -29 -126 -159 -209 -215 -67 -46 -155 -91 -176 -91 -8 0 -15 -4 -15 -10
0 -5 -11 -10 -25 -10 -13 0 -50 -7 -82 -16 -155 -43 -261 -56 -448 -55 -164 1
-223 8 -400 45 -149 30 -359 113 -454 179 -24 17 -62 48 -84 69 -22 21 -46 37
-54 34 -14 -6 -19 9 -5 17 4 2 2 2 -5 1 -7 -2 -15 1 -18 6 -4 6 -2 10 4 10 5
0 -5 22 -22 49 -18 27 -36 47 -41 43 -5 -3 -7 2 -3 11 4 11 1 17 -7 17 -8 0
-12 9 -11 24 2 19 -1 23 -13 19 -12 -5 -14 -2 -9 11 4 10 3 15 -3 11 -6 -3
-10 2 -10 12 0 11 -5 24 -11 30 -5 5 -11 24 -11 41 -1 17 -6 30 -12 29 -5 -1
-10 8 -11 20 0 12 -3 24 -7 28 -4 4 -4 14 -1 23 5 13 3 14 -7 5 -42 -39 132
-377 257 -495 76 -72 271 -161 458 -208 189 -48 336 -64 519 -57 310 13 575
83 740 196 102 70 276 281 262 318 -3 8 -2 12 3 8 12 -7 66 133 91 238 41 169
48 520 14 700 -19 98 -61 223 -104 307 -166 328 -436 479 -949 530 -129 13
-204 11 -355 -6z"/>
<path d="M1455 2590 c-3 -11 -10 -20 -14 -20 -13 0 -7 -232 6 -255 10 -16 13
1 15 100 1 66 2 131 2 145 1 14 5 31 9 38 5 7 4 12 -2 12 -5 0 -13 -9 -16 -20z"/>
<path d="M1511 2448 c1 -126 3 -147 12 -118 6 19 14 37 18 40 4 3 9 48 11 100
4 85 2 97 -15 113 -11 9 -22 17 -24 17 -1 0 -3 -69 -2 -152z"/>
<path d="M1534 2289 c-4 -7 -28 -9 -68 -5 l-61 5 30 -25 c22 -19 37 -23 59
-19 30 5 66 31 66 47 0 12 -18 10 -26 -3z"/>
<path d="M928 1998 c-7 -4 -44 -8 -83 -9 -38 -1 -83 -5 -100 -9 -29 -7 -29 -8
10 -10 40 -2 40 -2 -13 -11 -118 -20 -228 -104 -280 -217 -25 -52 -27 -70 -32
-222 -3 -91 -8 -170 -12 -175 -9 -14 24 -149 52 -210 36 -78 147 -174 240
-207 66 -24 100 -27 255 -29 212 -2 246 14 309 143 37 76 33 74 231 70 l142
-3 26 -49 c15 -28 27 -54 27 -60 0 -20 53 -69 91 -84 31 -13 80 -16 225 -16
158 0 193 3 244 20 176 59 293 225 293 415 0 153 -6 341 -13 355 -42 92 -69
136 -108 174 -119 115 -153 127 -364 134 -146 4 -159 3 -191 -17 -90 -56 -68
-179 35 -195 24 -4 50 -11 58 -16 12 -7 10 -11 -10 -18 -38 -15 -98 -75 -111
-110 -6 -18 -14 -32 -17 -32 -4 0 -7 -17 -6 -37 1 -21 -2 -87 -5 -148 l-6
-110 -26 55 c-24 50 -56 117 -125 267 -13 28 -24 56 -24 62 0 5 -22 32 -49 60
-59 60 -102 73 -161 46 -51 -23 -73 -48 -66 -73 4 -12 -18 -71 -64 -168 -39
-82 -75 -158 -80 -169 -73 -164 -142 -295 -155 -295 -8 0 -14 -6 -12 -12 4
-21 -137 -22 -213 -2 -129 34 -180 68 -216 142 -16 31 -19 68 -22 222 l-4 185
29 55 c38 71 106 110 192 109 l56 -1 -77 -24 c-88 -28 -141 -73 -158 -133 -16
-58 -12 -299 5 -359 29 -96 98 -151 224 -178 95 -20 121 -19 121 6 0 12 9 24
23 29 27 11 92 76 111 113 22 42 29 86 28 190 -1 152 -34 240 -111 296 l-39
29 49 17 c57 21 89 56 89 98 0 40 -25 85 -58 102 -32 16 -136 26 -154 14z
m156 -47 c9 -8 14 -16 12 -19 -3 -2 -1 -13 5 -24 14 -27 -7 -77 -35 -83 -11
-2 -86 -6 -166 -7 -129 -3 -150 -6 -194 -27 -52 -26 -98 -85 -116 -151 -17
-59 -12 -338 6 -400 21 -72 98 -149 173 -173 77 -25 290 -24 319 1 11 9 87
163 167 342 81 179 156 335 168 348 27 29 73 29 104 0 13 -12 23 -25 23 -30 0
-4 29 -69 65 -144 36 -75 65 -138 65 -140 0 -1 40 -86 89 -187 59 -123 96
-189 111 -197 37 -20 296 -9 340 14 65 34 100 67 128 119 26 50 27 60 30 222
4 194 -5 254 -48 314 -53 73 -90 85 -283 91 -152 4 -170 7 -183 24 -20 28 -18
49 8 82 13 15 16 24 8 20 -12 -7 -12 -6 0 8 22 22 304 24 366 2 68 -24 105
-46 98 -58 -4 -6 -3 -8 4 -4 15 9 66 -37 91 -82 69 -122 81 -175 81 -363 0
-150 -10 -213 -49 -296 -38 -80 -105 -146 -189 -186 l-67 -32 -195 0 c-247 0
-244 -1 -307 131 l-44 94 -192 0 -192 0 -41 -92 c-59 -134 -58 -133 -304 -133
-189 0 -197 1 -250 26 -111 53 -194 155 -226 278 -12 51 -15 102 -12 250 3
176 4 189 29 242 49 105 133 176 241 205 63 17 319 19 351 3 21 -10 21 -10 3
5 -14 12 -43 16 -103 16 -46 0 -83 3 -83 8 0 13 176 -2 194 -17z m1201 -221
c57 -56 70 -99 57 -181 l-11 -64 5 65 c3 39 1 60 -4 52 -6 -9 -14 -1 -26 30
-21 55 -39 75 -101 117 l-50 33 44 -5 c34 -4 53 -15 86 -47z m-693 -7 c12 -20
74 -150 138 -287 64 -138 127 -270 141 -293 25 -45 49 -63 49 -38 0 8 -4 15
-8 15 -7 0 -34 61 -29 66 2 2 18 -10 37 -26 19 -17 38 -30 43 -30 4 0 7 -5 7
-11 0 -6 -9 -8 -20 -4 -11 4 -20 2 -20 -4 0 -12 8 -13 101 -11 108 2 227 44
269 94 23 29 31 16 8 -15 -28 -38 -100 -86 -148 -99 -60 -16 -252 -16 -277 0
-20 13 -112 193 -201 395 -49 112 -119 255 -134 272 -8 10 -6 13 6 13 9 0 26
-17 38 -37z m605 1 c29 -18 59 -49 78 -78 29 -48 30 -53 33 -194 5 -172 -6
-211 -74 -270 -129 -114 -324 -54 -374 114 -18 60 -10 289 12 330 66 122 214
166 325 98z m-1236 14 c54 -16 113 -69 134 -120 23 -56 32 -223 15 -301 -32
-156 -189 -236 -325 -166 -58 29 -110 92 -126 152 -6 24 -9 94 -7 168 3 123 4
129 33 170 36 50 68 75 121 94 48 17 105 19 155 3z"/>
<path d="M1978 1953 c39 -2 105 -2 145 0 39 1 7 3 -73 3 -80 0 -112 -2 -72 -3z"/>
<path d="M1451 1532 c-14 -31 -46 -101 -72 -154 l-46 -98 142 0 143 0 -65 148
c-36 81 -68 150 -72 154 -3 4 -17 -19 -30 -50z m94 -192 c-3 -6 -35 -10 -71
-10 -50 0 -64 3 -64 15 0 19 51 128 64 137 13 8 80 -127 71 -142z m15 -40
c-15 -9 -168 -6 -178 4 -3 3 39 6 94 6 64 0 94 -4 84 -10z"/>
<path d="M1995 1713 c-40 -21 -83 -62 -103 -98 -14 -24 -17 -57 -16 -170 1
-121 3 -145 21 -180 40 -76 105 -115 192 -115 61 0 97 13 135 48 53 50 66 94
66 227 0 66 -5 138 -11 160 -14 51 -92 129 -139 138 -54 11 -113 7 -145 -10z
m159 -27 c19 -8 38 -22 43 -31 6 -9 14 -15 19 -13 4 1 13 -14 19 -35 6 -21 14
-35 18 -31 8 8 9 -6 7 -163 -1 -101 -4 -117 -27 -159 -31 -55 -74 -77 -148
-77 -71 0 -120 26 -158 85 -21 34 -37 280 -18 292 6 4 11 17 11 29 0 12 14 38
30 57 16 19 30 32 30 28 0 -4 15 1 33 12 38 23 94 26 141 6z"/>
<path d="M792 1709 c-87 -43 -112 -104 -112 -274 0 -111 2 -126 26 -174 63
-126 229 -155 325 -57 49 50 57 85 58 231 0 106 -3 137 -18 171 -49 107 -176
154 -279 103z m158 -32 c27 -13 57 -39 75 -65 29 -42 30 -49 32 -153 1 -122
-7 -164 -44 -220 -45 -68 -137 -83 -230 -36 -70 36 -85 72 -91 210 -4 87 -1
116 13 155 23 60 55 104 72 98 7 -3 12 0 10 6 -2 13 39 25 88 26 17 1 50 -9
75 -21z"/>
<path d="M208 1701 c-5 -35 -7 -116 -7 -180 l2 -116 9 130 c4 72 7 153 6 180
l-3 50 -7 -64z"/>
<path d="M487 1045 c21 -39 105 -117 138 -128 14 -4 12 -1 -5 10 -14 9 -52 44
-84 77 -33 34 -55 52 -49 41z"/>
</g>
</svg>
